<svg xmlns="http://www.w3.org/2000/svg" enable-background="new 0 0 140 140" viewBox="0 0 140 140" id="steering"><path d="M70,135c35.8413086,0,65-29.1591797,65-65S105.8413086,5,70,5S5,34.1591797,5,70S34.1586914,135,70,135z M70,7
	c34.7382812,0,63,28.2617188,63,63s-28.2617188,63-63,63S7,104.7382812,7,70S35.2617188,7,70,7z"></path><path d="M66.0734863,125.8479004c0.0065918,0.0002441,0.012207,0.0036621,0.0187988,0.0036621
	c0.006958,0,0.0139771-0.0004883,0.0209351-0.0004883c1.2857666,0.088623,2.5788574,0.1499023,3.8867798,0.1499023
	c1.3937378,0,2.7709351-0.0686035,4.1394043-0.1691895c0.0229492,0.0031738,0.041748,0.0161133,0.0651855,0.0178223
	c0.0234375,0.0009766,0.046875,0.0019531,0.0698242,0.0019531c0.0913086,0,0.1750488-0.0268555,0.2595825-0.0500488
	C103.2980957,123.4838867,126,99.3520508,126,70.0009766c0-30.8789062-25.121582-56-56-56s-56,25.1210938-56,56
	C14,99.5585938,37.0220337,123.8239746,66.0734863,125.8479004z M67.0316162,123.9157715l-2.9599609-43.3479004
	c1.8345337,0.9465332,3.9089355,1.4907227,6.1114502,1.4907227c2.2175293,0,4.3058472-0.5505371,6.1494751-1.5087891
	l-2.994873,43.3378906c-1.1050415,0.067627-2.2159424,0.1132812-3.3377075,0.1132812
	C69.0036621,124.0009766,68.0148315,123.9692383,67.0316162,123.9157715z M22.6669922,44.9189453l37.9330444,14.4221191
	c-2.3498535,2.4133301-3.8046265,5.7023926-3.8046265,9.3288574c0,0.6740723,0.0662842,1.331543,0.1629028,1.9790039
	L19.0458984,53.5302734c-0.1437988-0.0649414-0.2932739-0.0842285-0.4411011-0.0795898
	c0.9835815-3.046875,2.2293091-5.9763184,3.7137451-8.7614746C22.4154053,44.7861328,22.5305786,44.8671875,22.6669922,44.9189453z
	 M58.7954102,68.6699219c0-6.2792969,5.1083984-11.3876953,11.3876953-11.3876953s11.3881836,5.1083984,11.3881836,11.3876953
	s-5.1088867,11.3886719-11.3881836,11.3886719S58.7954102,74.9492188,58.7954102,68.6699219z M117.8939819,45.1035156
	c1.3540039,2.5939941,2.503418,5.309082,3.4267578,8.1276855c-0.1253662,0.0056152-0.2520142,0.0324707-0.3734741,0.0881348
	L83.4152832,70.6035156c0.0922241-0.6330566,0.1560059-1.2753906,0.1560059-1.9335938
	c0-3.5751953-1.4171143-6.8195801-3.7086182-9.2231445l37.7203369-14.1489258
	C117.7023315,45.2529297,117.8042603,45.1835938,117.8939819,45.1035156z M75.3530273,123.7338867l3.0779419-44.5393066
	c1.9905396-1.5634766,3.522644-3.675293,4.3765869-6.1091309l38.9766235-17.949707
	c0.0383301-0.0175781,0.0630493-0.0498047,0.0980225-0.0715332C123.2512207,59.8115234,124,64.8190918,124,70.0009766
	C124,97.9699707,102.625,121.0373535,75.3530273,123.7338867z M70,16.0009766
	c20.1120605,0,37.6786499,11.0600586,46.9708862,27.409668c-0.0300293,0.0080566-0.0603027,0.0031738-0.0900269,0.0141602
	L78.164978,57.9470215c-2.2319336-1.6657715-4.9890137-2.6647949-7.9818726-2.6647949
	c-2.9384766,0-5.6500244,0.9628906-7.8604126,2.5742188L23.3779297,43.0498047
	c-0.0424194-0.0163574-0.0856934-0.0114746-0.1287231-0.0214844C32.5970459,26.8891602,50.0452881,16.0009766,70,16.0009766z
	 M18.0674438,55.2412109c0.0521851,0.0371094,0.0946045,0.0839844,0.1552124,0.1113281l39.3490601,17.767334
	c0.8619995,2.4350586,2.4036865,4.5454102,4.4037476,6.1044922l3.0411987,44.5378418
	C37.5692749,121.2375488,16,98.095459,16,70.0009766C16,64.8833008,16.7310181,59.9360352,18.0674438,55.2412109z"></path></svg>